<?xml version="1.0" encoding="UTF-8"?>
<!DOCTYPE svg PUBLIC "-//W3C//DTD SVG 1.0//EN" "http://www.w3.org/TR/2001/REC-SVG-20010904/DTD/svg10.dtd">
<!-- Creator: CorelDRAW 2021 (64-Bit) -->
<?xml-stylesheet href="img-2.css" type="text/css"?>
<svg xmlns="http://www.w3.org/2000/svg" xml:space="preserve" width="6.24636in" height="1.36756in" version="1.0" style="shape-rendering:geometricPrecision; text-rendering:geometricPrecision; image-rendering:optimizeQuality; fill-rule:evenodd; clip-rule:evenodd"
viewBox="0 0 316.23 69.23"
 xmlns:xlink="http://www.w3.org/1999/xlink"
 xmlns:xodm="http://www.corel.com/coreldraw/odm/2003">
 <g id="Layer_x0020_1">
  <metadata id="CorelCorpID_0Corel-Layer"/>
  <g id="_2632136374080">
   <path class="fil0" d="M-0 64.7l0 1.53c0.91,0.98 1.4,0.74 3.21,0.72 1.19,-0.01 2.22,-0.13 3.3,-0.4 5.32,-1.31 9.58,-6.73 10.22,-12.55 12.58,-0.18 25.3,-0.01 37.89,-0.01l85.04 0c5.25,0 5,0.89 5,-4.36l0 -14.21c0,-1.35 0.37,-3.31 -0.59,-4.04 -1.8,-1.14 -3.29,1.68 -4.67,3.58 -2.34,3.24 -2.14,2.05 -4.36,3.98 -0.2,2.88 1.16,1.47 2.15,3.34 0.48,0.91 0.8,3.23 0.72,4.48l-28.18 -0.05c-0.52,-2.67 -0.17,-3.14 -1.66,-5.34 -0.78,-1.15 -2.36,-2.47 -4.04,-2.96 -2.1,-0.6 -10.79,-0.27 -13.61,-0.27 -4.6,0 -24.75,0.24 -27.51,-0.05 0.48,-0.64 2.18,-1.85 2.79,-2.4 2.24,-2 6.14,-5.66 7.85,-7.75 2.02,-2.48 2.65,-2.98 4.68,-5.93 6.23,-9.02 0.84,-8.42 -0.31,-6.91 -0.66,0.86 -1.2,1.68 -1.83,2.38 -4.63,5.19 -7.85,7.96 -13,12.2 -2.89,2.38 -6.37,4.79 -9.88,6.92 -1.66,1.01 -3.62,2.06 -5.49,2.93 -1.06,0.49 -1.8,0.81 -2.97,1.24 -1.04,0.38 -2.33,0.54 -2.81,1.19 -0.38,0.74 -0.27,1.94 -0.11,2.86 1.43,1.03 5.01,0.53 7.16,0.53 8.62,0 52.53,-0.29 53.84,0.22 0.07,1.54 -1.09,1.14 -3.62,1.14l-51.83 0.03c-3.94,0 -15.69,0.19 -18.69,-0.03 -0.27,-2.03 -0.06,-5.7 -0.06,-7.91 0,-1.88 0.39,-6.88 -0.62,-7.48 -2.51,-1.47 -3.94,4.13 -7.31,6.41 -0.73,0.49 -1.72,0.74 -1.76,1.87 -0.06,1.94 3.56,1.38 2.93,7.13l-5.04 -0.02c-0.24,-1.55 -0.08,-9.33 -0.07,-11.92 0,-1.72 0.29,-2.89 -0.61,-3.44 -1.92,-1.17 -3.51,2.03 -4.96,4.06 -2.06,2.89 -4.97,2.84 -3.9,5.02 0.38,0.6 0.69,0.49 1.31,1.12 1.29,1.3 1.4,3.65 1.45,5.44 0.07,2.63 0.19,6.34 -0.58,8.71 -2.24,6.89 -7.61,7.49 -9.51,8.96z"/>
   <path class="fil0" d="M231.28 29.51c1.95,-0.38 2.71,0.23 3.33,1.63 1.59,3.6 0.65,10.09 -0.37,13.6 -1.25,4.32 -4.02,11.99 -8.34,12.23 -8.11,0.45 -3.19,-25.77 5.39,-27.46zm10.05 25.78c0.6,-10.12 6.54,-26.14 6.69,-29.2l-9.63 0.01c-0.61,1.23 -0.2,2.3 -1.26,3.25 -1.26,-1.17 -1.62,-4.25 -7.6,-4.38 -3.79,-0.08 -6.43,1.49 -8.66,3.19 -4.14,3.16 -7.42,9.61 -8.61,14.99 -1.65,7.47 -0.43,14.4 4.63,17.5 4.41,2.7 9.52,1.32 13.14,-1.91 0.59,-0.53 0.94,-0.92 1.46,-1.54 0.4,-0.48 0.71,-1.1 1.21,-1.57 0.23,3.16 0.62,5.82 3.64,6.38 2.98,0.56 5.67,-1.18 7.33,-2.43 1.82,-1.37 3.45,-3.12 4.76,-5.25 1.07,-1.75 2.83,-6.12 0.09,-6.99 -2.02,2.52 -2.56,7.93 -7.2,7.94z"/>
   <path class="fil0" d="M296.53 43.87c0.42,-2.39 1.87,-7.85 2.82,-9.84 1.29,-2.71 3.27,-5.22 7.2,-5.26 4.57,4.81 -1,14.2 -10.02,15.11zm6.01 -18.74c-10.58,1.81 -19.33,16.33 -16.52,27.04 2.95,11.26 17.06,12.16 22.74,5.86 1.03,-1.14 4.21,-2.79 3.8,-4.56 -0.68,-2.91 -6.23,2.11 -6.81,2.54 -3.75,2.74 -8.8,2.92 -9.61,-3.79 -0.11,-0.88 -0.51,-4.58 0.28,-4.91 0.67,-0.28 11.36,-1.14 16.56,-5.67 1.77,-1.54 3.51,-4.74 3.23,-8.02 -0.48,-5.67 -6.86,-9.65 -13.66,-8.49z"/>
   <path class="fil0" d="M204.5 50.23c-0.22,0.17 -0.09,0.04 -0.3,0.3l-1.08 1.72c-9.43,12.99 -26.1,9.17 -20.46,-10.43 1.78,-6.17 6.17,-12.51 11.19,-14.44 1.64,-0.63 3.61,-0.74 5.36,-0.1 3.32,1.2 4.48,4.31 5.24,7.56 0.23,0.99 0.88,4.51 1.24,5.13 3.34,0.27 2.8,-3.74 3.37,-6.36 0.3,-1.39 0.6,-2.77 0.9,-4.13 0.15,-0.69 0.29,-1.3 0.42,-1.97 0.14,-0.7 0.4,-1.41 0.12,-1.98 -3.34,-0.64 -3,2.02 -5,3.03 -1.46,-0.54 -0.96,-1.8 -4.6,-3.36 -6.5,-2.78 -13,-0.96 -18.18,2.84 -17.65,12.91 -12.25,35.84 6.37,35.69 11.07,-0.09 20.41,-10.8 15.41,-13.51z"/>
   <path class="fil0" d="M269.54 33.35c-0.31,-0.77 1.43,-5.96 1.43,-7.69 -4.8,-0.27 -9.81,0.43 -14.73,0.46l-0.86 3.83c1.88,0.09 3.13,-0.31 4.92,0.32 0.51,3.51 -1.74,12.45 -2.73,15.8 -1.19,4.05 -3.16,10.53 -3.57,14.76l9.36 -0.01c0.91,-5.54 2.67,-12.34 4.42,-17.34 0.95,-2.72 2.2,-5.23 3.59,-7.42 0.86,-1.35 3.79,-5.04 5.13,-5.58 0.55,1.55 0.5,4.38 1.34,5.43 0.94,1.17 3.02,2.15 4.88,1.1 2.37,-1.33 4.45,-6.06 2.72,-9.71 -0.8,-1.69 -1.91,-2.57 -4.31,-2.58 -6.75,-0.03 -8.37,4.47 -11.61,8.62z"/>
   <path class="fil1" d="M154.8 5.22c-0.21,0.94 -1.67,2.4 -2.45,3.06 -0.5,0.43 -1.01,0.77 -1.62,1.18 -0.67,0.45 -1.04,0.77 -1.65,0.86l-0 0.83c3.03,1.51 3.94,4.71 4.25,8.96 0.54,7.36 -0.52,35.03 0.42,39.12 0.37,2.74 1.38,5.04 2.82,6.7 0.61,0.7 1.46,1.51 2.51,2.08 1.16,0.62 2.48,0.77 3.37,1.22l3.94 0 4.08 -1.23c1.15,-0.38 2.69,-1.37 3.67,-1.47 0.5,-0.65 0.59,-0.29 1.05,-1.14 -3.58,-0.04 -7.21,0.48 -9.97,-1.08 -2.26,-1.28 -3.99,-3.54 -4.7,-6.48 -1.18,-2.19 -0.72,-23.68 -0.72,-28.42 0,-9.78 -0.12,-19.64 0.01,-29.41l-0.98 0c-0.06,0.1 -3.44,4.79 -4.01,5.22z"/>
   <path class="fil2" d="M25.7 60.03c0.66,2.84 5.37,2.11 4.73,-1.17 -0.57,-2.92 -5.52,-2.2 -4.73,1.17z"/>
   <path class="fil0" d="M138.73 60.03c0.77,2.92 5.37,2.06 4.74,-1.17 -0.56,-2.86 -5.62,-2.17 -4.74,1.17z"/>
   <path class="fil0" d="M20.05 62.23c0.9,2.92 5.58,1.69 4.62,-1.47 -0.78,-2.59 -5.67,-1.9 -4.62,1.47z"/>
   <path class="fil0" d="M137.69 62.23c0.91,-3.09 -3.54,-4.23 -4.55,-1.7 -1.33,3.33 3.7,4.57 4.55,1.7z"/>
  </g>
 </g>
</svg>
